<svg width="78" height="75" viewBox="0 0 78 75" fill="none" xmlns="http://www.w3.org/2000/svg">
<path d="M3.24219 0.9375V18H0.980469V0.9375H3.24219ZM13.543 0.9375L6.45312 8.89453L2.46875 13.0312L2.09375 10.6172L5.09375 7.3125L10.8242 0.9375H13.543ZM11.3633 18L5.04688 9.67969L6.39453 7.88672L14.0586 18H11.3633ZM16.0508 0.9375H21.6992C22.9805 0.9375 24.0625 1.13281 24.9453 1.52344C25.8359 1.91406 26.5117 2.49219 26.9727 3.25781C27.4414 4.01562 27.6758 4.94922 27.6758 6.05859C27.6758 6.83984 27.5156 7.55469 27.1953 8.20312C26.8828 8.84375 26.4297 9.39062 25.8359 9.84375C25.25 10.2891 24.5469 10.6211 23.7266 10.8398L23.0938 11.0859H17.7852L17.7617 9.24609H21.7695C22.582 9.24609 23.2578 9.10547 23.7969 8.82422C24.3359 8.53516 24.7422 8.14844 25.0156 7.66406C25.2891 7.17969 25.4258 6.64453 25.4258 6.05859C25.4258 5.40234 25.2969 4.82812 25.0391 4.33594C24.7812 3.84375 24.375 3.46484 23.8203 3.19922C23.2734 2.92578 22.5664 2.78906 21.6992 2.78906H18.3125V18H16.0508V0.9375ZM26.0234 18L21.875 10.2656L24.2305 10.2539L28.4375 17.8594V18H26.0234ZM43.9766 8.92969V10.0078C43.9766 11.2891 43.8164 12.4375 43.4961 13.4531C43.1758 14.4688 42.7148 15.332 42.1133 16.043C41.5117 16.7539 40.7891 17.2969 39.9453 17.6719C39.1094 18.0469 38.1719 18.2344 37.1328 18.2344C36.125 18.2344 35.1992 18.0469 34.3555 17.6719C33.5195 17.2969 32.793 16.7539 32.1758 16.043C31.5664 15.332 31.0938 14.4688 30.7578 13.4531C30.4219 12.4375 30.2539 11.2891 30.2539 10.0078V8.92969C30.2539 7.64844 30.418 6.50391 30.7461 5.49609C31.082 4.48047 31.5547 3.61719 32.1641 2.90625C32.7734 2.1875 33.4961 1.64062 34.332 1.26562C35.1758 0.890625 36.1016 0.703125 37.1094 0.703125C38.1484 0.703125 39.0859 0.890625 39.9219 1.26562C40.7656 1.64062 41.4883 2.1875 42.0898 2.90625C42.6992 3.61719 43.1641 4.48047 43.4844 5.49609C43.8125 6.50391 43.9766 7.64844 43.9766 8.92969ZM41.7383 10.0078V8.90625C41.7383 7.89062 41.6328 6.99219 41.4219 6.21094C41.2188 5.42969 40.918 4.77344 40.5195 4.24219C40.1211 3.71094 39.6328 3.30859 39.0547 3.03516C38.4844 2.76172 37.8359 2.625 37.1094 2.625C36.4062 2.625 35.7695 2.76172 35.1992 3.03516C34.6367 3.30859 34.1523 3.71094 33.7461 4.24219C33.3477 4.77344 33.0391 5.42969 32.8203 6.21094C32.6016 6.99219 32.4922 7.89062 32.4922 8.90625V10.0078C32.4922 11.0312 32.6016 11.9375 32.8203 12.7266C33.0391 13.5078 33.3516 14.168 33.7578 14.707C34.1719 15.2383 34.6602 15.6406 35.2227 15.9141C35.793 16.1875 36.4297 16.3242 37.1328 16.3242C37.8672 16.3242 38.5195 16.1875 39.0898 15.9141C39.6602 15.6406 40.1406 15.2383 40.5312 14.707C40.9297 14.168 41.2305 13.5078 41.4336 12.7266C41.6367 11.9375 41.7383 11.0312 41.7383 10.0078ZM53.6562 11.3086H49.0977V9.46875H53.6562C54.5391 9.46875 55.2539 9.32812 55.8008 9.04688C56.3477 8.76562 56.7461 8.375 56.9961 7.875C57.2539 7.375 57.3828 6.80469 57.3828 6.16406C57.3828 5.57812 57.2539 5.02734 56.9961 4.51172C56.7461 3.99609 56.3477 3.58203 55.8008 3.26953C55.2539 2.94922 54.5391 2.78906 53.6562 2.78906H49.625V18H47.3633V0.9375H53.6562C54.9453 0.9375 56.0352 1.16016 56.9258 1.60547C57.8164 2.05078 58.4922 2.66797 58.9531 3.45703C59.4141 4.23828 59.6445 5.13281 59.6445 6.14062C59.6445 7.23438 59.4141 8.16797 58.9531 8.94141C58.4922 9.71484 57.8164 10.3047 56.9258 10.7109C56.0352 11.1094 54.9453 11.3086 53.6562 11.3086ZM67.2031 2.44922L61.5547 18H59.2461L65.75 0.9375H67.2383L67.2031 2.44922ZM71.9375 18L66.2773 2.44922L66.2422 0.9375H67.7305L74.2578 18H71.9375ZM71.6445 11.6836V13.5352H62.0586V11.6836H71.6445ZM11.2812 40.5742H13.5312C13.4141 41.6523 13.1055 42.6172 12.6055 43.4688C12.1055 44.3203 11.3984 44.9961 10.4844 45.4961C9.57031 45.9883 8.42969 46.2344 7.0625 46.2344C6.0625 46.2344 5.15234 46.0469 4.33203 45.6719C3.51953 45.2969 2.82031 44.7656 2.23438 44.0781C1.64844 43.3828 1.19531 42.5508 0.875 41.582C0.5625 40.6055 0.40625 39.5195 0.40625 38.3242V36.625C0.40625 35.4297 0.5625 34.3477 0.875 33.3789C1.19531 32.4023 1.65234 31.5664 2.24609 30.8711C2.84766 30.1758 3.57031 29.6406 4.41406 29.2656C5.25781 28.8906 6.20703 28.7031 7.26172 28.7031C8.55078 28.7031 9.64062 28.9453 10.5312 29.4297C11.4219 29.9141 12.1133 30.5859 12.6055 31.4453C13.1055 32.2969 13.4141 33.2852 13.5312 34.4102H11.2812C11.1719 33.6133 10.9688 32.9297 10.6719 32.3594C10.375 31.7812 9.95312 31.3359 9.40625 31.0234C8.85938 30.7109 8.14453 30.5547 7.26172 30.5547C6.50391 30.5547 5.83594 30.6992 5.25781 30.9883C4.6875 31.2773 4.20703 31.6875 3.81641 32.2188C3.43359 32.75 3.14453 33.3867 2.94922 34.1289C2.75391 34.8711 2.65625 35.6953 2.65625 36.6016V38.3242C2.65625 39.1602 2.74219 39.9453 2.91406 40.6797C3.09375 41.4141 3.36328 42.0586 3.72266 42.6133C4.08203 43.168 4.53906 43.6055 5.09375 43.9258C5.64844 44.2383 6.30469 44.3945 7.0625 44.3945C8.02344 44.3945 8.78906 44.2422 9.35938 43.9375C9.92969 43.6328 10.3594 43.1953 10.6484 42.625C10.9453 42.0547 11.1562 41.3711 11.2812 40.5742ZM27.7578 36.2734V38.1133H18.5234V36.2734H27.7578ZM18.875 28.9375V46H16.6133V28.9375H18.875ZM29.7266 28.9375V46H27.4766V28.9375H29.7266ZM46.8828 36.9297V38.0078C46.8828 39.2891 46.7227 40.4375 46.4023 41.4531C46.082 42.4688 45.6211 43.332 45.0195 44.043C44.418 44.7539 43.6953 45.2969 42.8516 45.6719C42.0156 46.0469 41.0781 46.2344 40.0391 46.2344C39.0312 46.2344 38.1055 46.0469 37.2617 45.6719C36.4258 45.2969 35.6992 44.7539 35.082 44.043C34.4727 43.332 34 42.4688 33.6641 41.4531C33.3281 40.4375 33.1602 39.2891 33.1602 38.0078V36.9297C33.1602 35.6484 33.3242 34.5039 33.6523 33.4961C33.9883 32.4805 34.4609 31.6172 35.0703 30.9062C35.6797 30.1875 36.4023 29.6406 37.2383 29.2656C38.082 28.8906 39.0078 28.7031 40.0156 28.7031C41.0547 28.7031 41.9922 28.8906 42.8281 29.2656C43.6719 29.6406 44.3945 30.1875 44.9961 30.9062C45.6055 31.6172 46.0703 32.4805 46.3906 33.4961C46.7188 34.5039 46.8828 35.6484 46.8828 36.9297ZM44.6445 38.0078V36.9062C44.6445 35.8906 44.5391 34.9922 44.3281 34.2109C44.125 33.4297 43.8242 32.7734 43.4258 32.2422C43.0273 31.7109 42.5391 31.3086 41.9609 31.0352C41.3906 30.7617 40.7422 30.625 40.0156 30.625C39.3125 30.625 38.6758 30.7617 38.1055 31.0352C37.543 31.3086 37.0586 31.7109 36.6523 32.2422C36.2539 32.7734 35.9453 33.4297 35.7266 34.2109C35.5078 34.9922 35.3984 35.8906 35.3984 36.9062V38.0078C35.3984 39.0312 35.5078 39.9375 35.7266 40.7266C35.9453 41.5078 36.2578 42.168 36.6641 42.707C37.0781 43.2383 37.5664 43.6406 38.1289 43.9141C38.6992 44.1875 39.3359 44.3242 40.0391 44.3242C40.7734 44.3242 41.4258 44.1875 41.9961 43.9141C42.5664 43.6406 43.0469 43.2383 43.4375 42.707C43.8359 42.168 44.1367 41.5078 44.3398 40.7266C44.543 39.9375 44.6445 39.0312 44.6445 38.0078ZM55.5195 43.4102L60.5469 28.9375H62.9961L56.6797 46H54.9336L55.5195 43.4102ZM50.8203 28.9375L55.8008 43.4102L56.4219 46H54.6758L48.3711 28.9375H50.8203ZM70.7188 30.4492L65.0703 46H62.7617L69.2656 28.9375H70.7539L70.7188 30.4492ZM75.4531 46L69.793 30.4492L69.7578 28.9375H71.2461L77.7734 46H75.4531ZM75.1602 39.6836V41.5352H65.5742V39.6836H75.1602ZM7.27344 67.3086H2.71484V65.4688H7.27344C8.15625 65.4688 8.87109 65.3281 9.41797 65.0469C9.96484 64.7656 10.3633 64.375 10.6133 63.875C10.8711 63.375 11 62.8047 11 62.1641C11 61.5781 10.8711 61.0273 10.6133 60.5117C10.3633 59.9961 9.96484 59.582 9.41797 59.2695C8.87109 58.9492 8.15625 58.7891 7.27344 58.7891H3.24219V74H0.980469V56.9375H7.27344C8.5625 56.9375 9.65234 57.1602 10.543 57.6055C11.4336 58.0508 12.1094 58.668 12.5703 59.457C13.0312 60.2383 13.2617 61.1328 13.2617 62.1406C13.2617 63.2344 13.0312 64.168 12.5703 64.9414C12.1094 65.7148 11.4336 66.3047 10.543 66.7109C9.65234 67.1094 8.5625 67.3086 7.27344 67.3086ZM27.2656 64.2734V66.1133H18.0312V64.2734H27.2656ZM18.3828 56.9375V74H16.1211V56.9375H18.3828ZM29.2344 56.9375V74H26.9844V56.9375H29.2344ZM46.3906 64.9297V66.0078C46.3906 67.2891 46.2305 68.4375 45.9102 69.4531C45.5898 70.4688 45.1289 71.332 44.5273 72.043C43.9258 72.7539 43.2031 73.2969 42.3594 73.6719C41.5234 74.0469 40.5859 74.2344 39.5469 74.2344C38.5391 74.2344 37.6133 74.0469 36.7695 73.6719C35.9336 73.2969 35.207 72.7539 34.5898 72.043C33.9805 71.332 33.5078 70.4688 33.1719 69.4531C32.8359 68.4375 32.668 67.2891 32.668 66.0078V64.9297C32.668 63.6484 32.832 62.5039 33.1602 61.4961C33.4961 60.4805 33.9688 59.6172 34.5781 58.9062C35.1875 58.1875 35.9102 57.6406 36.7461 57.2656C37.5898 56.8906 38.5156 56.7031 39.5234 56.7031C40.5625 56.7031 41.5 56.8906 42.3359 57.2656C43.1797 57.6406 43.9023 58.1875 44.5039 58.9062C45.1133 59.6172 45.5781 60.4805 45.8984 61.4961C46.2266 62.5039 46.3906 63.6484 46.3906 64.9297ZM44.1523 66.0078V64.9062C44.1523 63.8906 44.0469 62.9922 43.8359 62.2109C43.6328 61.4297 43.332 60.7734 42.9336 60.2422C42.5352 59.7109 42.0469 59.3086 41.4688 59.0352C40.8984 58.7617 40.25 58.625 39.5234 58.625C38.8203 58.625 38.1836 58.7617 37.6133 59.0352C37.0508 59.3086 36.5664 59.7109 36.1602 60.2422C35.7617 60.7734 35.4531 61.4297 35.2344 62.2109C35.0156 62.9922 34.9062 63.8906 34.9062 64.9062V66.0078C34.9062 67.0312 35.0156 67.9375 35.2344 68.7266C35.4531 69.5078 35.7656 70.168 36.1719 70.707C36.5859 71.2383 37.0742 71.6406 37.6367 71.9141C38.207 72.1875 38.8438 72.3242 39.5469 72.3242C40.2812 72.3242 40.9336 72.1875 41.5039 71.9141C42.0742 71.6406 42.5547 71.2383 42.9453 70.707C43.3438 70.168 43.6445 69.5078 43.8477 68.7266C44.0508 67.9375 44.1523 67.0312 44.1523 66.0078ZM55.7539 56.9375V74H53.5273V56.9375H55.7539ZM61.2383 56.9375V58.7891H48.0547V56.9375H61.2383ZM76.5781 64.9297V66.0078C76.5781 67.2891 76.418 68.4375 76.0977 69.4531C75.7773 70.4688 75.3164 71.332 74.7148 72.043C74.1133 72.7539 73.3906 73.2969 72.5469 73.6719C71.7109 74.0469 70.7734 74.2344 69.7344 74.2344C68.7266 74.2344 67.8008 74.0469 66.957 73.6719C66.1211 73.2969 65.3945 72.7539 64.7773 72.043C64.168 71.332 63.6953 70.4688 63.3594 69.4531C63.0234 68.4375 62.8555 67.2891 62.8555 66.0078V64.9297C62.8555 63.6484 63.0195 62.5039 63.3477 61.4961C63.6836 60.4805 64.1562 59.6172 64.7656 58.9062C65.375 58.1875 66.0977 57.6406 66.9336 57.2656C67.7773 56.8906 68.7031 56.7031 69.7109 56.7031C70.75 56.7031 71.6875 56.8906 72.5234 57.2656C73.3672 57.6406 74.0898 58.1875 74.6914 58.9062C75.3008 59.6172 75.7656 60.4805 76.0859 61.4961C76.4141 62.5039 76.5781 63.6484 76.5781 64.9297ZM74.3398 66.0078V64.9062C74.3398 63.8906 74.2344 62.9922 74.0234 62.2109C73.8203 61.4297 73.5195 60.7734 73.1211 60.2422C72.7227 59.7109 72.2344 59.3086 71.6562 59.0352C71.0859 58.7617 70.4375 58.625 69.7109 58.625C69.0078 58.625 68.3711 58.7617 67.8008 59.0352C67.2383 59.3086 66.7539 59.7109 66.3477 60.2422C65.9492 60.7734 65.6406 61.4297 65.4219 62.2109C65.2031 62.9922 65.0938 63.8906 65.0938 64.9062V66.0078C65.0938 67.0312 65.2031 67.9375 65.4219 68.7266C65.6406 69.5078 65.9531 70.168 66.3594 70.707C66.7734 71.2383 67.2617 71.6406 67.8242 71.9141C68.3945 72.1875 69.0312 72.3242 69.7344 72.3242C70.4688 72.3242 71.1211 72.1875 71.6914 71.9141C72.2617 71.6406 72.7422 71.2383 73.1328 70.707C73.5312 70.168 73.832 69.5078 74.0352 68.7266C74.2383 67.9375 74.3398 67.0312 74.3398 66.0078Z" fill="#F3F3F3"/>
</svg>
